<?xml version="1.0" encoding="UTF-8"?>
<svg xmlns="http://www.w3.org/2000/svg" xmlns:xlink="http://www.w3.org/1999/xlink" width="16px" height="16px" viewBox="0 0 16 16" version="1.1">
<g id="surface1">
<path style=" stroke:none;fill-rule:nonzero;fill:rgb(92.156863%,90.196078%,89.411765%);fill-opacity:1;" d="M 10.496094 16.03125 C 7.039062 16.03125 3.601562 16.03125 0.160156 16.035156 C 0.0507812 16.035156 0.0273438 16.011719 0.0273438 15.902344 C 0.03125 10.65625 0.03125 5.40625 0.0273438 0.160156 C 0.0273438 0.0507812 0.0507812 0.0273438 0.160156 0.0273438 C 5.40625 0.03125 10.65625 0.03125 15.902344 0.0273438 C 16.011719 0.0273438 16.035156 0.0507812 16.035156 0.160156 C 16.03125 5.40625 16.03125 10.65625 16.035156 15.902344 C 16.035156 16.011719 16.011719 16.035156 15.902344 16.035156 C 14.105469 16.03125 12.308594 16.03125 10.496094 16.03125 Z M 10.496094 16.03125 "/>
<path style=" stroke:none;fill-rule:nonzero;fill:rgb(65.490196%,65.490196%,65.490196%);fill-opacity:1;" d="M 8.734375 4.414062 C 8.429688 4.28125 8.113281 4.273438 7.800781 4.261719 C 7.398438 4.25 7 4.265625 6.597656 4.253906 C 6.445312 4.25 6.398438 4.296875 6.398438 4.453125 C 6.40625 5.523438 6.402344 6.597656 6.402344 7.667969 C 6.402344 7.871094 6.402344 7.871094 6.191406 7.871094 C 5.996094 7.871094 5.796875 7.863281 5.601562 7.875 C 5.46875 7.882812 5.441406 7.832031 5.441406 7.710938 C 5.445312 6.738281 5.441406 5.769531 5.441406 4.796875 C 5.441406 4.75 5.441406 4.703125 5.4375 4.65625 C 5.398438 4.371094 5.292969 4.289062 4.953125 4.257812 C 4.914062 4.257812 4.875 4.257812 4.839844 4.257812 C 4.8125 4.253906 4.785156 4.246094 4.78125 4.214844 C 4.78125 4.167969 4.8125 4.164062 4.847656 4.160156 C 4.878906 4.160156 4.910156 4.160156 4.941406 4.160156 C 6.164062 4.160156 7.382812 4.160156 8.605469 4.160156 C 9.039062 4.160156 9.453125 4.253906 9.820312 4.496094 C 10.304688 4.820312 10.527344 5.296875 10.585938 5.855469 C 10.632812 6.269531 10.601562 6.683594 10.4375 7.078125 C 10.308594 7.375 10.105469 7.609375 9.855469 7.804688 C 9.804688 7.84375 9.75 7.875 9.679688 7.875 C 9.410156 7.871094 9.136719 7.871094 8.832031 7.871094 C 9 7.742188 9.15625 7.648438 9.273438 7.503906 C 9.535156 7.179688 9.628906 6.789062 9.660156 6.390625 C 9.6875 5.992188 9.648438 5.601562 9.511719 5.222656 C 9.375 4.84375 9.128906 4.566406 8.734375 4.414062 Z M 8.734375 4.414062 "/>
<path style=" stroke:none;fill-rule:nonzero;fill:rgb(65.490196%,65.490196%,65.490196%);fill-opacity:1;" d="M 9.027344 9.792969 C 8.929688 9.59375 8.835938 9.40625 8.742188 9.222656 C 8.707031 9.148438 8.71875 9.117188 8.804688 9.117188 C 9.089844 9.121094 9.371094 9.125 9.652344 9.117188 C 9.75 9.117188 9.78125 9.171875 9.816406 9.242188 C 10.019531 9.648438 10.234375 10.054688 10.429688 10.46875 C 10.617188 10.871094 10.894531 11.125 11.363281 11.109375 C 11.410156 11.109375 11.472656 11.109375 11.476562 11.171875 C 11.480469 11.246094 11.414062 11.230469 11.371094 11.230469 C 11.027344 11.222656 10.679688 11.25 10.335938 11.210938 C 9.847656 11.160156 9.558594 10.851562 9.347656 10.449219 C 9.238281 10.234375 9.136719 10.015625 9.027344 9.792969 Z M 9.027344 9.792969 "/>
<path style=" stroke:none;fill-rule:nonzero;fill:rgb(65.490196%,65.490196%,65.490196%);fill-opacity:1;" d="M 6.367188 11.230469 C 5.871094 11.230469 5.394531 11.230469 4.914062 11.226562 C 4.867188 11.226562 4.785156 11.257812 4.785156 11.179688 C 4.78125 11.097656 4.863281 11.113281 4.917969 11.109375 C 5.367188 11.085938 5.441406 11.011719 5.441406 10.5625 C 5.445312 10.136719 5.445312 9.710938 5.441406 9.285156 C 5.4375 9.164062 5.464844 9.109375 5.597656 9.117188 C 5.820312 9.128906 6.046875 9.125 6.269531 9.117188 C 6.375 9.113281 6.40625 9.15625 6.40625 9.257812 C 6.398438 9.597656 6.402344 9.9375 6.402344 10.28125 C 6.402344 10.441406 6.410156 10.597656 6.425781 10.757812 C 6.449219 10.992188 6.53125 11.082031 6.761719 11.105469 C 6.820312 11.109375 6.878906 11.105469 6.9375 11.109375 C 6.988281 11.113281 7.0625 11.089844 7.0625 11.167969 C 7.066406 11.253906 6.992188 11.226562 6.945312 11.230469 C 6.757812 11.230469 6.570312 11.230469 6.367188 11.230469 Z M 6.367188 11.230469 "/>
<path style=" stroke:none;fill-rule:nonzero;fill:rgb(57.254902%,51.372549%,46.666667%);fill-opacity:1;" d="M 4.789062 8.472656 C 4.96875 8.394531 5.164062 8.367188 5.34375 8.207031 C 5.316406 8.355469 5.1875 8.351562 5.160156 8.453125 C 5.34375 8.4375 5.472656 8.296875 5.65625 8.265625 C 5.628906 8.371094 5.511719 8.375 5.472656 8.488281 C 5.738281 8.457031 5.984375 8.429688 6.210938 8.304688 C 6.328125 8.238281 6.441406 8.167969 6.578125 8.253906 C 6.488281 8.277344 6.394531 8.265625 6.308594 8.3125 C 6.285156 8.328125 6.246094 8.335938 6.25 8.378906 C 6.257812 8.410156 6.289062 8.410156 6.3125 8.417969 C 6.511719 8.492188 6.703125 8.417969 6.839844 8.316406 C 7.03125 8.171875 7.203125 7.996094 7.386719 7.828125 C 7.316406 7.785156 7.253906 7.828125 7.195312 7.824219 C 7.1875 7.757812 7.238281 7.75 7.265625 7.75 C 7.460938 7.765625 7.613281 7.671875 7.761719 7.5625 C 7.804688 7.527344 7.875 7.457031 7.921875 7.519531 C 7.964844 7.574219 7.878906 7.613281 7.839844 7.652344 C 7.824219 7.671875 7.796875 7.683594 7.773438 7.703125 C 7.816406 7.765625 7.890625 7.71875 7.921875 7.777344 C 7.453125 7.839844 7.152344 8.164062 6.828125 8.453125 C 7.023438 8.488281 7.183594 8.371094 7.367188 8.375 C 7.203125 8.46875 6.996094 8.597656 6.847656 8.527344 C 6.601562 8.414062 6.414062 8.546875 6.203125 8.578125 C 6.179688 8.582031 6.152344 8.582031 6.125 8.578125 C 6.117188 8.578125 6.109375 8.566406 6.101562 8.558594 C 6.109375 8.484375 6.195312 8.515625 6.222656 8.46875 C 6.179688 8.414062 6.132812 8.421875 6.070312 8.4375 C 5.953125 8.472656 5.835938 8.503906 5.714844 8.519531 C 5.597656 8.535156 5.46875 8.609375 5.363281 8.472656 C 5.34375 8.445312 5.296875 8.488281 5.265625 8.496094 C 5.179688 8.523438 5.097656 8.59375 5.007812 8.488281 C 4.964844 8.441406 4.886719 8.5 4.8125 8.507812 C 4.792969 8.5 4.789062 8.492188 4.789062 8.472656 Z M 4.789062 8.472656 "/>
<path style=" stroke:none;fill-rule:nonzero;fill:rgb(56.862745%,50.980392%,46.27451%);fill-opacity:1;" d="M 7.90625 8.59375 C 7.925781 8.550781 7.964844 8.523438 7.96875 8.492188 C 7.980469 8.394531 7.996094 8.34375 8.117188 8.378906 C 8.175781 8.398438 8.230469 8.316406 8.289062 8.28125 C 8.386719 8.222656 8.480469 8.164062 8.578125 8.105469 C 8.605469 8.089844 8.640625 8.085938 8.660156 8.121094 C 8.675781 8.144531 8.65625 8.171875 8.636719 8.191406 C 8.546875 8.292969 8.429688 8.351562 8.296875 8.390625 C 8.257812 8.402344 8.179688 8.398438 8.199219 8.464844 C 8.214844 8.523438 8.285156 8.488281 8.324219 8.480469 C 8.527344 8.4375 8.730469 8.394531 8.910156 8.28125 C 8.929688 8.265625 8.953125 8.246094 8.980469 8.269531 C 8.988281 8.335938 8.882812 8.335938 8.898438 8.417969 C 9.050781 8.421875 9.160156 8.289062 9.320312 8.265625 C 9.292969 8.371094 9.175781 8.378906 9.128906 8.476562 C 9.324219 8.496094 9.496094 8.425781 9.683594 8.390625 C 9.707031 8.402344 9.710938 8.414062 9.703125 8.441406 C 9.550781 8.480469 9.40625 8.519531 9.261719 8.539062 C 9.097656 8.566406 8.929688 8.4375 8.765625 8.542969 C 8.515625 8.394531 8.292969 8.605469 8.039062 8.601562 C 7.988281 8.636719 7.949219 8.648438 7.90625 8.59375 Z M 7.90625 8.59375 "/>
<path style=" stroke:none;fill-rule:nonzero;fill:rgb(58.039216%,52.156863%,47.45098%);fill-opacity:1;" d="M 7.75 8.164062 C 7.839844 8.171875 7.890625 8.125 7.945312 8.082031 C 8.101562 7.964844 8.257812 7.851562 8.433594 7.757812 C 8.125 8.035156 7.785156 8.269531 7.464844 8.527344 C 7.492188 8.394531 7.632812 8.351562 7.703125 8.253906 C 7.691406 8.242188 7.6875 8.234375 7.679688 8.230469 C 7.621094 8.210938 7.523438 8.261719 7.503906 8.199219 C 7.484375 8.121094 7.585938 8.101562 7.640625 8.066406 C 7.792969 7.976562 7.941406 7.878906 8.109375 7.8125 C 8.117188 7.828125 8.125 7.839844 8.132812 7.851562 C 8.019531 7.917969 7.90625 7.984375 7.792969 8.050781 C 7.753906 8.070312 7.707031 8.085938 7.6875 8.117188 C 7.644531 8.1875 7.71875 8.148438 7.75 8.164062 Z M 7.75 8.164062 "/>
<path style=" stroke:none;fill-rule:nonzero;fill:rgb(58.039216%,52.156863%,47.45098%);fill-opacity:1;" d="M 9.691406 8.460938 C 9.695312 8.433594 9.695312 8.417969 9.695312 8.394531 C 9.765625 8.363281 9.828125 8.316406 9.890625 8.289062 C 9.996094 8.25 10.117188 8.242188 10.234375 8.238281 C 10.28125 8.238281 10.292969 8.296875 10.265625 8.339844 C 10.175781 8.492188 10.289062 8.457031 10.363281 8.441406 C 10.488281 8.414062 10.609375 8.378906 10.734375 8.367188 C 10.660156 8.441406 10.5625 8.453125 10.46875 8.480469 C 10.378906 8.503906 10.292969 8.523438 10.203125 8.539062 C 10.164062 8.546875 10.113281 8.5625 10.085938 8.519531 C 10.058594 8.472656 10.097656 8.4375 10.121094 8.40625 C 10.136719 8.386719 10.160156 8.367188 10.140625 8.324219 C 9.996094 8.339844 9.890625 8.445312 9.765625 8.507812 C 9.738281 8.523438 9.660156 8.613281 9.691406 8.460938 Z M 9.691406 8.460938 "/>
<path style=" stroke:none;fill-rule:nonzero;fill:rgb(56.862745%,50.980392%,46.27451%);fill-opacity:1;" d="M 4.78125 8.464844 C 4.796875 8.46875 4.796875 8.476562 4.796875 8.496094 C 4.742188 8.53125 4.679688 8.546875 4.617188 8.546875 C 4.574219 8.542969 4.5 8.539062 4.515625 8.5 C 4.546875 8.4375 4.46875 8.398438 4.519531 8.316406 C 4.601562 8.183594 4.675781 8.183594 4.789062 8.238281 C 4.808594 8.246094 4.828125 8.242188 4.867188 8.246094 C 4.808594 8.355469 4.695312 8.371094 4.609375 8.441406 C 4.601562 8.449219 4.597656 8.460938 4.589844 8.46875 C 4.648438 8.496094 4.710938 8.476562 4.78125 8.464844 Z M 4.78125 8.464844 "/>
<path style=" stroke:none;fill-rule:nonzero;fill:rgb(56.862745%,50.980392%,46.27451%);fill-opacity:1;" d="M 7.816406 8.765625 C 7.699219 8.894531 7.550781 8.976562 7.382812 9.035156 C 7.460938 8.910156 7.582031 8.832031 7.699219 8.738281 C 7.746094 8.722656 7.78125 8.726562 7.816406 8.765625 Z M 7.816406 8.765625 "/>
<path style=" stroke:none;fill-rule:nonzero;fill:rgb(58.039216%,52.156863%,47.45098%);fill-opacity:1;" d="M 7.835938 8.773438 C 7.792969 8.765625 7.761719 8.753906 7.722656 8.742188 C 7.769531 8.6875 7.828125 8.636719 7.894531 8.582031 C 7.933594 8.613281 7.96875 8.605469 8.019531 8.605469 C 7.980469 8.679688 7.917969 8.726562 7.835938 8.773438 Z M 7.835938 8.773438 "/>
<path style=" stroke:none;fill-rule:nonzero;fill:rgb(57.254902%,51.372549%,46.666667%);fill-opacity:1;" d="M 4.589844 8.464844 C 4.585938 8.464844 4.589844 8.457031 4.597656 8.449219 C 4.601562 8.449219 4.59375 8.460938 4.589844 8.464844 Z M 4.589844 8.464844 "/>
<path style=" stroke:none;fill-rule:nonzero;fill:rgb(92.156863%,90.196078%,89.411765%);fill-opacity:1;" d="M 10.199219 8.464844 C 10.1875 8.464844 10.183594 8.460938 10.183594 8.457031 C 10.191406 8.445312 10.199219 8.445312 10.199219 8.464844 Z M 10.199219 8.464844 "/>
</g>
</svg>
