<svg version="1.1" id="Layer_1" xmlns="http://www.w3.org/2000/svg" xmlns:xlink="http://www.w3.org/1999/xlink" x="0px" y="0px"
	 width="100%" viewBox="0 0 500 500" enable-background="new 0 0 500 500" xml:space="preserve">
<path fill="#EBE6E4" opacity="1.000000" stroke="none" 
	d="
M328.000000,501.000000 
	C220.000031,501.000000 112.500031,500.979065 5.000180,501.095398 
	C1.576347,501.099091 0.903033,500.423889 0.905298,497.000031 
	C1.013776,333.000122 1.013757,169.000153 0.905338,5.000258 
	C0.903075,1.576984 1.575758,0.903020 4.999865,0.905285 
	C168.999756,1.013775 332.999725,1.013760 496.999634,0.905354 
	C500.422638,0.903091 501.096985,1.575408 501.094727,4.999745 
	C500.986206,168.999634 500.986237,332.999603 501.094604,496.999512 
	C501.096893,500.422272 500.426086,501.105530 497.000183,501.097168 
	C440.833710,500.960236 384.666809,501.000000 328.000000,501.000000 
z"/>
<path fill="#A7A7A7" opacity="1.000000" stroke="none" 
	d="
M272.967712,137.897324 
	C263.381866,133.729675 253.487961,133.501526 243.725311,133.178177 
	C231.239578,132.764664 218.725204,133.271973 206.232697,132.978165 
	C201.476883,132.866302 199.943176,134.230591 199.971954,139.125397 
	C200.168915,172.622696 200.076828,206.121689 200.074341,239.620148 
	C200.073853,245.995941 200.066559,245.998230 193.495804,246.001450 
	C187.329422,246.004486 181.149246,245.751404 175.001495,246.089828 
	C170.896683,246.315811 169.997162,244.771332 170.011566,240.948517 
	C170.125870,210.617218 170.048141,180.285172 170.020432,149.953369 
	C170.019058,148.454895 170.064865,146.939026 169.867050,145.460922 
	C168.686447,136.638824 165.401459,133.975601 154.729721,133.113708 
	C153.569107,133.019989 152.396423,133.084549 151.232910,133.015503 
	C150.366318,132.964096 149.523758,132.694427 149.452332,131.663315 
	C149.356369,130.278214 150.412415,130.099823 151.441483,130.039780 
	C152.438477,129.981613 153.440445,129.999237 154.440216,129.999252 
	C192.605118,130.000290 230.770035,129.978836 268.934906,130.018646 
	C282.520447,130.032806 295.375000,132.905090 306.846466,140.533249 
	C321.998413,150.608765 328.941193,165.536148 330.825470,182.981796 
	C332.227844,195.965042 331.346832,208.830688 326.132782,221.151917 
	C322.178864,230.495483 315.806732,237.761154 307.954163,243.901886 
	C306.385376,245.128662 304.724396,246.070221 302.518982,246.042343 
	C294.035095,245.935089 285.549103,245.998856 275.953430,245.998856 
	C281.226471,241.928406 286.124176,238.963715 289.765381,234.481583 
	C298.029877,224.308411 300.889313,212.210388 301.819336,199.656204 
	C302.733704,187.312637 301.509918,175.046524 297.275726,163.264786 
	C292.997467,151.360367 285.239777,142.717896 272.967712,137.897324 
z"/>
<path fill="#A7A7A7" opacity="1.000000" stroke="none" 
	d="
M282.059601,305.969971 
	C279.019409,299.819122 276.169312,293.989075 273.230042,288.204376 
	C272.060272,285.902191 272.425537,284.939453 275.205780,284.967224 
	C284.026886,285.055420 292.851929,285.119354 301.669983,284.933014 
	C304.661255,284.869843 305.685974,286.591797 306.766449,288.759430 
	C313.149719,301.565399 319.808777,314.239868 325.921387,327.173035 
	C331.831238,339.677185 340.451874,347.678589 355.118500,347.187134 
	C356.565613,347.138641 358.495422,347.123108 358.638000,349.098267 
	C358.810883,351.492706 356.680725,350.922913 355.357422,350.893311 
	C344.554443,350.651611 333.738678,351.521027 322.944214,350.393585 
	C307.683838,348.799683 298.670593,339.163940 292.088959,326.477203 
	C288.642883,319.834564 285.495972,313.036713 282.059601,305.969971 
z"/>
<path fill="#A7A7A7" opacity="1.000000" stroke="none" 
	d="
M198.999908,350.932068 
	C183.514099,350.931946 168.528122,350.959015 153.542587,350.888824 
	C152.080490,350.881989 149.592575,351.809174 149.494522,349.381683 
	C149.388397,346.754883 151.953842,347.258972 153.682053,347.172821 
	C167.709351,346.474060 170.010773,344.119171 170.060501,330.069031 
	C170.107651,316.748413 170.186188,303.426147 170.013596,290.107666 
	C169.965424,286.389618 170.722122,284.687195 174.933624,284.899933 
	C181.909241,285.252289 188.919815,285.140320 195.907135,284.934540 
	C199.250763,284.836090 200.180603,286.088165 200.134674,289.283752 
	C199.981522,299.938171 200.126801,310.596466 200.056274,321.252594 
	C200.023193,326.250946 200.338730,331.208221 200.830170,336.181458 
	C201.549622,343.462494 204.100052,346.280212 211.341614,346.996307 
	C213.159256,347.176056 215.008133,347.028717 216.829620,347.184357 
	C218.343216,347.313690 220.664581,346.547882 220.749893,349.015289 
	C220.840530,351.636932 218.457504,350.872223 216.982834,350.894653 
	C211.156326,350.983307 205.327698,350.931702 198.999908,350.932068 
z"/>
<path fill="#928377" opacity="1.000000" stroke="none" 
	d="
M149.611359,264.801605 
	C155.310760,262.268921 161.344162,261.481445 166.962967,256.477570 
	C166.119125,261.111664 162.072754,261.025452 161.302261,264.115845 
	C166.931671,263.708069 171.001953,259.279083 176.709442,258.318268 
	C175.845108,261.581848 172.246124,261.711639 171.063339,265.210663 
	C179.301025,264.301270 187.023010,263.418030 194.032806,259.504822 
	C197.739456,257.435638 201.272583,255.238373 205.557159,257.887085 
	C202.770172,258.626404 199.790466,258.361053 197.192886,259.819855 
	C196.364487,260.285095 195.185440,260.552338 195.367233,261.805237 
	C195.508667,262.780029 196.558167,262.832581 197.313721,263.116547 
	C203.438156,265.418488 209.458923,263.047943 213.727783,259.874298 
	C219.733414,255.409439 225.116135,249.828339 230.800278,244.575180 
	C228.676758,243.246048 226.727448,244.627121 224.870667,244.447464 
	C224.650299,242.377899 226.192703,242.172028 227.088120,242.238831 
	C233.206543,242.695328 237.894531,239.750519 242.507996,236.312805 
	C243.948029,235.239777 246.075424,233.036819 247.600861,234.972885 
	C248.933868,236.664734 246.194443,237.905945 245.047028,239.187317 
	C244.509399,239.787720 243.709198,240.153015 242.962402,240.670303 
	C244.304947,242.717331 246.613205,241.230392 247.578186,243.026917 
	C232.926193,244.965897 223.567184,255.173096 213.379135,264.191193 
	C219.481842,265.319244 224.479630,261.608002 230.244781,261.689758 
	C225.148209,264.639801 218.632721,268.674194 214.038971,266.537903 
	C206.256516,262.918671 200.497971,267.134399 193.885330,268.035522 
	C193.076126,268.145752 192.241440,268.146912 191.426270,268.089325 
	C191.171066,268.071320 190.941208,267.694672 190.714645,267.495270 
	C190.902603,265.090240 193.567520,266.107788 194.431580,264.603973 
	C193.148941,262.891327 191.605774,263.165070 189.735184,263.692352 
	C186.056122,264.729462 182.323471,265.713562 178.546036,266.225494 
	C174.877914,266.722565 170.858749,269.058746 167.625381,264.778809 
	C166.934296,263.864044 165.564102,265.208099 164.514679,265.530426 
	C161.808746,266.361511 159.318451,268.517700 156.436035,265.227875 
	C155.135742,263.743774 152.713272,265.602112 150.390930,265.858032 
	C149.801086,265.640625 149.608673,265.418640 149.611359,264.801605 
z"/>
<path fill="#918276" opacity="1.000000" stroke="none" 
	d="
M247.066528,268.515350 
	C247.719727,267.172607 248.875656,266.312195 248.991348,265.329346 
	C249.342010,262.350067 249.877289,260.737885 253.636169,261.878326 
	C255.553619,262.460083 257.244507,259.859650 259.070892,258.752655 
	C262.052063,256.945831 264.999908,255.081558 268.021362,253.345184 
	C268.869751,252.857666 270.044189,252.669724 270.652344,253.748306 
	C271.112000,254.563522 270.471161,255.346237 269.919281,255.965149 
	C267.058685,259.173248 263.383270,260.972626 259.335449,262.221832 
	C258.080261,262.609192 255.651382,262.509430 256.228577,264.519775 
	C256.738953,266.297333 258.872162,265.272461 260.181915,264.997467 
	C266.512878,263.668365 272.880676,262.386688 278.441437,258.765717 
	C279.100433,258.336609 279.805969,257.735931 280.673798,258.423218 
	C280.912689,260.554932 277.584869,260.478241 278.117462,263.016632 
	C282.895020,263.160950 286.238556,259.045471 291.222443,258.300903 
	C290.417603,261.633606 286.756104,261.797211 285.243774,264.845490 
	C291.385956,265.548370 296.728912,263.286621 302.607269,262.218872 
	C303.334137,262.539917 303.461334,262.960907 303.224579,263.737000 
	C298.491943,265.004639 293.976074,266.198303 289.384552,266.889099 
	C284.275848,267.657654 279.081848,263.716736 273.944977,267.007874 
	C266.145447,262.274170 259.123322,268.955170 251.268265,268.750427 
	C249.636917,269.866180 248.358765,270.216827 247.066528,268.515350 
z"/>
<path fill="#948579" opacity="1.000000" stroke="none" 
	d="
M242.193207,255.077454 
	C244.982071,255.366776 246.582230,253.852234 248.318329,252.561111 
	C253.195770,248.933777 258.111145,245.357452 263.553497,242.465240 
	C253.946091,251.065796 243.322784,258.378448 233.229843,266.470856 
	C234.158585,262.329163 238.550949,261.033539 240.707779,257.898499 
	C240.363617,257.574860 240.183380,257.273285 239.930573,257.188751 
	C238.109879,256.579987 235.075150,258.128967 234.539642,256.175812 
	C233.897079,253.832184 237.060013,253.115860 238.769318,252.088898 
	C243.528488,249.229599 248.219055,246.184891 253.424362,244.176880 
	C253.674393,244.574646 253.924423,244.972427 254.174454,245.370193 
	C250.620132,247.423004 247.060654,249.466980 243.514420,251.533691 
	C242.368225,252.201691 240.832977,252.671280 240.216797,253.682999 
	C238.892258,255.857727 241.175583,254.686798 242.193207,255.077454 
z"/>
<path fill="#948579" opacity="1.000000" stroke="none" 
	d="
M302.882996,264.442505 
	C303.027008,263.544037 303.012878,263.055237 302.997803,262.377136 
	C305.123291,261.306580 307.097778,259.887604 309.092377,259.089142 
	C312.365662,257.778809 316.182983,257.587067 319.789520,257.462433 
	C321.333099,257.409058 321.644806,259.236969 320.843872,260.583649 
	C318.013947,265.341888 321.515778,264.269318 323.877441,263.766876 
	C327.715485,262.950317 331.489685,261.833679 335.504822,261.429688 
	C333.188385,263.774414 330.024445,264.153107 327.103058,264.989532 
	C324.398651,265.763885 321.639191,266.375671 318.872345,266.888367 
	C317.637573,267.117157 316.071472,267.556854 315.229065,266.185120 
	C314.362762,264.774384 315.553436,263.727234 316.342072,262.679016 
	C316.819000,262.045166 317.485107,261.461578 316.875641,260.140717 
	C312.321899,260.602112 309.100922,263.932495 305.233765,265.863464 
	C304.319275,266.320068 301.919739,269.160400 302.882996,264.442505 
z"/>
<path fill="#918276" opacity="1.000000" stroke="none" 
	d="
M149.442047,264.478912 
	C149.841736,264.648712 149.877045,264.890869 149.952911,265.497803 
	C148.154526,266.660248 146.236252,267.084625 144.228378,267.042908 
	C142.935028,267.016052 140.615601,266.813965 141.173492,265.641327 
	C142.122452,263.646667 139.593079,262.512115 141.202728,259.930389 
	C143.802277,255.761017 146.066727,255.705048 149.683365,257.405884 
	C150.223038,257.659698 150.920166,257.578705 152.081314,257.716156 
	C150.239273,261.105865 146.701706,261.645264 144.091492,263.841553 
	C143.763077,263.978119 143.643692,264.439423 143.468384,264.600769 
	C145.252518,265.548950 147.158569,264.871399 149.442047,264.478912 
z"/>
<path fill="#918276" opacity="1.000000" stroke="none" 
	d="
M244.309387,273.869232 
	C240.560074,277.909546 235.939636,280.497162 230.759445,282.353302 
	C233.197769,278.483673 236.950226,276.047119 240.657333,273.114380 
	C242.108917,272.572357 243.153900,272.739929 244.309387,273.869232 
z"/>
<path fill="#948579" opacity="1.000000" stroke="none" 
	d="
M244.822876,274.143738 
	C243.564758,273.916443 242.608597,273.602631 241.309692,273.135254 
	C242.788086,271.432861 244.609238,269.884064 246.734924,268.212128 
	C247.891083,269.126709 249.077194,268.979675 250.569580,268.979553 
	C249.449554,271.193329 247.385437,272.737213 244.822876,274.143738 
z"/>
<path fill="#928377" opacity="1.000000" stroke="none" 
	d="
M143.422272,264.573120 
	C143.308716,264.511505 143.400253,264.299164 143.665390,264.051575 
	C143.763077,263.978119 143.551437,264.384125 143.422272,264.573120 
z"/>
<path fill="#EBE6E4" opacity="1.000000" stroke="none" 
	d="
M318.703979,264.527344 
	C318.412750,264.552643 318.196960,264.372406 318.221161,264.330414 
	C318.461182,263.913727 318.701355,263.942017 318.703979,264.527344 
z"/>
</svg>